<svg width="18" height="18" viewBox="0 0 64 64" fill="none" xmlns="http://www.w3.org/2000/svg">
<rect width="64" height="64" rx="32" fill="#18D07A"/>
<path d="M22.4914 30.5117H30.512V22.491C30.512 22.1256 31.0081 21.3334 32.0004 21.3334C32.9926 21.3334 33.4887 22.1257 33.4887 22.491V30.5117H41.5094C41.8747 30.5117 42.667 31.0078 42.667 32C42.667 32.9922 41.8747 33.4884 41.5094 33.4884H33.4887V41.5091C33.4887 41.8744 32.9926 42.6667 32.0003 42.6667C31.008 42.6667 30.5119 41.8744 30.5119 41.5091V33.4884H22.4913C22.126 33.4884 21.3337 32.9923 21.3337 32C21.3337 31.0077 22.1261 30.5117 22.4914 30.5117Z" fill="white" stroke="white"/>
</svg>
