<svg width="24" height="24" viewBox="0 0 24 24" fill="none" xmlns="http://www.w3.org/2000/svg">
<path d="M19.5802 10.2219C19.3574 10.0014 18.9986 10.0013 18.7757 10.2217L11.0467 17.8649C9.69934 19.1974 7.51469 19.1974 6.16736 17.8649C4.82004 16.5325 4.82004 14.3724 6.16736 13.0399L13.486 5.80296C14.3844 4.91481 15.8403 4.91481 16.7387 5.80296C17.6371 6.69108 17.6371 8.13153 16.7387 9.01965L9.42004 16.2566C8.97112 16.701 8.2429 16.701 7.79341 16.2566C7.3445 15.8129 7.3445 15.0927 7.79341 14.6483L13.8876 8.62208C14.1139 8.39826 14.1139 8.03268 13.8876 7.80887V7.80887C13.6648 7.58858 13.3062 7.58861 13.0834 7.80893L6.98069 13.8447C6.08228 14.7328 6.08228 16.1732 6.98069 17.0614C7.8791 17.9495 9.33495 17.9495 10.2334 17.0614L17.5521 9.82438C18.8994 8.49191 18.8994 6.33184 17.5521 4.99935C16.2047 3.66688 14.0201 3.66688 12.6728 4.99935L4.9474 12.6384L4.9754 12.6664C3.57208 14.4506 3.69545 17.0299 5.35406 18.6697C7.01268 20.3094 9.61995 20.4322 11.4248 19.0438L11.4528 19.0718L19.5799 11.0349C19.8062 10.8112 19.8063 10.4458 19.5802 10.2219V10.2219Z" fill="#07214C" stroke="#07214C" stroke-width="0.2"/>
</svg>
