<svg width="24" height="24" viewBox="0 0 24 24" fill="none" xmlns="http://www.w3.org/2000/svg">
<g clip-path="url(#clip0)">
<path d="M19.9455 7.19246L14.9247 2.17164C14.8148 2.06172 14.6658 2 14.5104 2H6.03777C4.84953 2 3.88281 2.96668 3.88281 4.15492V19.845C3.88281 21.0333 4.84953 22 6.03773 22H17.9623C19.1505 22 20.1172 21.0333 20.1172 19.845V7.60676C20.1172 7.45137 20.0554 7.3023 19.9455 7.19246ZM15.0964 4.00051L18.1167 7.02082H16.0795C15.5374 7.02082 15.0964 6.5798 15.0964 6.03773V4.00051ZM17.9623 20.8281H6.03773C5.4957 20.8281 5.05469 20.3871 5.05469 19.845V4.15492C5.05469 3.61285 5.4957 3.17188 6.03773 3.17188H13.9245V6.03773C13.9245 7.22598 14.8912 8.1927 16.0794 8.1927H18.9453V19.845C18.9453 20.3871 18.5043 20.8281 17.9623 20.8281Z" fill="#07214C" fill-opacity="0.8"/>
<path d="M11.3724 11.9584L13.8828 11.9583C14.2065 11.9583 14.4688 11.6959 14.4688 11.3723C14.4688 11.0488 14.2064 10.7864 13.8828 10.7864L12.586 10.7865V10.1172C12.586 9.79359 12.3236 9.53125 12 9.53125C11.6764 9.53125 11.4141 9.79359 11.4141 10.1172V10.7866H11.3725C10.3572 10.7866 9.53129 11.6125 9.53129 12.6276C9.53129 13.6428 10.3572 14.4688 11.3725 14.4688L12.6276 14.4686C12.9966 14.4687 13.2969 14.769 13.2969 15.1381C13.2969 15.5071 12.9967 15.8074 12.6277 15.8074H10.1172C9.79359 15.8074 9.53125 16.0697 9.53125 16.3933C9.53125 16.7169 9.79359 16.9792 10.1172 16.9792H11.4141V17.6485C11.4141 17.972 11.6764 18.2344 12 18.2344C12.3236 18.2344 12.5859 17.972 12.5859 17.6485V16.9792H12.6276C13.6428 16.9792 14.4687 16.1532 14.4687 15.138C14.4687 14.123 13.6429 13.297 12.6276 13.2967L11.3724 13.2969C11.0033 13.2969 10.7031 12.9966 10.7031 12.6276C10.7031 12.2586 11.0034 11.9584 11.3724 11.9584Z" fill="#07214C" fill-opacity="0.8"/>
</g>
<defs>
<clipPath id="clip0">
<rect width="20" height="20" fill="white" transform="translate(2 2)"/>
</clipPath>
</defs>
</svg>
