<svg width="12" height="12" viewBox="0 0 12 12" fill="none" xmlns="http://www.w3.org/2000/svg">
<g clip-path="url(#clip0)">
<path d="M9.82377 7.91827L9.48454 7.74866C9.31383 7.6633 9.06459 7.43888 8.93997 7.26026L8.48076 6.59789C8.34632 6.40401 8.10798 6.19785 7.93101 6.19785H7.73221C7.75512 5.98842 7.83665 5.7719 7.93755 5.68137C8.05672 5.57502 7.98582 5.39041 7.78184 5.27015L7.24818 4.95764L7.45379 4.71058C7.55087 4.59169 7.80175 4.52815 7.99018 4.57505L8.2716 4.64432C8.5252 4.70567 8.87452 4.68795 9.06623 4.60369L9.3741 4.46625C9.42836 4.44198 9.45236 4.37844 9.42836 4.32417C9.40382 4.26936 9.33892 4.24537 9.28629 4.26936L8.97842 4.40653C8.83307 4.4717 8.52657 4.48479 8.32314 4.43489L8.04227 4.36562C7.76848 4.29909 7.4388 4.39071 7.28772 4.57369L7.06084 4.84802L6.80178 4.69613C6.61172 4.58405 6.37284 4.37953 6.24494 4.22301C6.25122 4.21755 6.26103 4.2181 6.26403 4.21019L6.43883 3.81642C6.4511 3.78888 6.43883 3.75752 6.41129 3.74525C6.3832 3.73352 6.35211 3.74525 6.34039 3.77279L6.17241 4.15101C6.06742 4.05175 5.93135 4.05175 5.82663 4.15101L5.65865 3.77279C5.64638 3.74525 5.61557 3.73352 5.58721 3.74525C5.55967 3.75752 5.5474 3.78888 5.55967 3.81642L5.73446 4.21019C5.73801 4.2181 5.74755 4.21755 5.75382 4.22301C5.62566 4.37953 5.38732 4.58405 5.19671 4.69613L4.93793 4.84802L4.71132 4.57369C4.56025 4.39071 4.23029 4.29854 3.9565 4.36562L3.67563 4.43489C3.47166 4.48506 3.16515 4.47197 3.02008 4.40653L2.7122 4.26936C2.65957 4.24537 2.59413 4.26936 2.56986 4.32417C2.54586 4.37817 2.56986 4.44198 2.62467 4.46625L2.93227 4.60369C3.12343 4.68849 3.47302 4.70649 3.72717 4.64432L4.00832 4.57533C4.19647 4.52842 4.44681 4.59223 4.54498 4.71085L4.75004 4.95791L4.21638 5.27042C4.01241 5.39041 3.94178 5.57529 4.06067 5.68164C4.1613 5.7719 4.2431 5.98869 4.26574 6.19812H4.06749C3.89106 6.19812 3.65272 6.40428 3.51801 6.59816L3.05852 7.26026C2.9339 7.43888 2.68439 7.6633 2.51341 7.74866L2.175 7.91827C2.12128 7.94472 2.10028 8.00962 2.12646 8.06198C2.145 8.10016 2.18291 8.12225 2.22272 8.12225C2.23935 8.12225 2.25544 8.11788 2.27071 8.11079L2.60994 7.94145C2.81446 7.83892 3.08907 7.59404 3.2355 7.38297L3.69499 6.72088C3.82343 6.53599 4.0045 6.413 4.06749 6.413H4.27583V7.56759H4.06749C3.87251 7.56759 3.69963 7.81492 3.629 8.05953L3.34867 9.03195C3.29086 9.23129 3.10625 9.46826 2.94481 9.54898L2.60613 9.71886C2.55295 9.74504 2.53114 9.80994 2.55759 9.86285C2.5764 9.90102 2.61458 9.92257 2.65412 9.92257C2.67048 9.92257 2.68657 9.91875 2.70184 9.91111L3.04107 9.74177C3.25541 9.63433 3.48147 9.34964 3.55564 9.0914L3.83625 8.11952C3.89924 7.90109 4.02849 7.78356 4.06776 7.78356H4.2761V8.19315C4.2761 8.42984 4.42035 8.75353 4.59679 8.91169L5.67883 9.88112C5.85527 10.0398 6.14405 10.0398 6.32021 9.88112L7.4028 8.91169C7.57896 8.75353 7.72321 8.42984 7.72321 8.19315V7.78356H7.93237C7.97164 7.78356 8.10062 7.90191 8.16416 8.11952L8.44421 9.0914C8.51811 9.34855 8.74472 9.63433 8.95851 9.74177L9.29829 9.91111C9.31356 9.91875 9.32938 9.92257 9.34601 9.92257C9.38582 9.92257 9.42373 9.90102 9.44254 9.86285C9.46927 9.80994 9.448 9.74477 9.394 9.71886L9.05532 9.54898C8.89361 9.46826 8.709 9.23156 8.65173 9.03195L8.37113 8.05953C8.30051 7.81519 8.12762 7.56759 7.93291 7.56759H7.72349V6.413H7.93237C7.99536 6.413 8.1767 6.53599 8.30514 6.72088L8.76463 7.38297C8.91079 7.59349 9.18539 7.83892 9.38991 7.94145L9.72887 8.11079C9.74442 8.11788 9.76078 8.12225 9.77741 8.12225C9.81722 8.12225 9.85458 8.10016 9.87394 8.06198C9.89876 8.00962 9.87776 7.94472 9.82377 7.91827Z" fill="#07214C" fill-opacity="0.8"/>
<path d="M6.53481 3.52055C6.55554 3.52055 6.57462 3.50855 6.58417 3.48864L6.87404 2.83336C6.88631 2.80582 6.8735 2.77446 6.8465 2.76219C6.81814 2.7491 6.78732 2.76219 6.77478 2.78973L6.48518 3.44474C6.47291 3.47228 6.48545 3.50392 6.51299 3.51619C6.51954 3.51919 6.52772 3.52055 6.53481 3.52055Z" fill="#07214C" fill-opacity="0.8"/>
<path d="M6.96959 2.53818C6.98977 2.53818 7.0094 2.52646 7.01894 2.50628L7.16729 2.17086C7.2041 2.15968 7.23383 2.13105 7.23383 2.09069C7.23383 2.04134 7.19347 2.00098 7.14356 2.00098C7.09421 2.00098 7.05439 2.04134 7.05439 2.09069C7.05439 2.1046 7.06339 2.11469 7.06885 2.12642L6.92077 2.46237C6.9085 2.48992 6.92077 2.52155 6.94832 2.53382C6.95459 2.53709 6.96168 2.53818 6.96959 2.53818Z" fill="#07214C" fill-opacity="0.8"/>
<path d="M5.41471 3.48877C5.42343 3.50867 5.44307 3.52067 5.46406 3.52067C5.47088 3.52067 5.47879 3.51958 5.48588 3.51604C5.51288 3.50376 5.52542 3.47213 5.51342 3.44459L5.22328 2.78958C5.21155 2.76231 5.17964 2.74895 5.15238 2.76231C5.12511 2.77431 5.11256 2.80622 5.12483 2.83321L5.41471 3.48877Z" fill="#07214C" fill-opacity="0.8"/>
<path d="M4.83162 2.17016L4.98024 2.50585C4.98896 2.52603 5.0086 2.53775 5.02959 2.53775C5.03641 2.53775 5.04432 2.53666 5.05141 2.53312C5.07841 2.52084 5.09095 2.48921 5.07895 2.46167L4.93006 2.12571C4.93579 2.11371 4.94533 2.10362 4.94533 2.08944C4.94533 2.04009 4.9047 2 4.85534 2C4.80599 2 4.76563 2.04009 4.76563 2.08944C4.76535 2.13035 4.79508 2.15898 4.83162 2.17016Z" fill="#07214C" fill-opacity="0.8"/>
</g>
<defs>
<clipPath id="clip0">
<rect width="8" height="8" fill="white" transform="translate(2 2)"/>
</clipPath>
</defs>
</svg>
