<svg width="24" height="24" viewBox="0 0 24 24" fill="none" xmlns="http://www.w3.org/2000/svg">
<rect opacity="0.01" width="24" height="24" rx="3" fill="#009DFF"/>
<path d="M13.1046 6.03643C15.6409 6.32855 17.6735 8.41319 17.9628 11.021C18.3425 14.4308 15.7649 17.3333 12.5338 17.3705V18.9001C12.5338 18.9851 12.4305 19.0303 12.3608 18.9771L9.29758 16.6641C9.24593 16.6243 9.24593 16.5473 9.29758 16.5074L12.3608 14.1944C12.4305 14.1413 12.5338 14.1891 12.5338 14.2714V15.7984C14.8041 15.7612 16.6223 13.7748 16.4674 11.4007C16.3357 9.35858 14.7163 7.70149 12.7301 7.57137C10.6251 7.43328 8.83527 8.97883 8.515 11.0236C8.4556 11.4034 8.13275 11.6796 7.76083 11.6796C7.29851 11.6796 6.93692 11.2573 7.00924 10.7873C7.45865 7.87411 10.075 5.68855 13.1046 6.03643Z" fill="#6F7782" stroke="#6F7782" stroke-width="0.75"/>
</svg>
