<svg width="24" height="24" viewBox="0 0 24 24" fill="none" xmlns="http://www.w3.org/2000/svg">
<path d="M19.0474 2.62012H7.0014C5.71899 2.62012 4.67573 3.66652 4.67573 4.95279V5.67501H3.94579C2.66338 5.67501 1.62012 6.72142 1.62012 8.0084V20.0474C1.62012 21.3337 2.66338 22.3801 3.94579 22.3801H15.9921C17.2787 22.3801 18.3251 21.3337 18.3251 20.0474V19.3252H19.0474C20.3339 19.3252 21.3808 18.2788 21.3808 16.9918V4.95271C21.3807 3.66652 20.3339 2.62012 19.0474 2.62012ZM16.8974 20.0474C16.8974 20.5465 16.4913 20.9523 15.9921 20.9523H3.94579C3.45079 20.9523 3.04787 20.5465 3.04787 20.0474V8.00833C3.04787 7.50918 3.45086 7.1027 3.94579 7.1027H5.38961H15.9921C16.4913 7.1027 16.8974 7.50911 16.8974 8.00833V18.6112V20.0474ZM19.9529 16.9918C19.9529 17.4909 19.5469 17.8974 19.0473 17.8974H18.3251V8.00833C18.3251 6.72142 17.2787 5.67494 15.9921 5.67494H6.10341V4.95271C6.10341 4.45357 6.5064 4.0478 7.00133 4.0478H19.0473C19.5468 4.0478 19.9529 4.45357 19.9529 4.95271V16.9918Z" fill="#07214C" fill-opacity="0.8"/>
</svg>
