<svg width="40" height="40" viewBox="0 0 40 40" fill="none" xmlns="http://www.w3.org/2000/svg">
<path fill-rule="evenodd" clip-rule="evenodd" d="M11 8H23.6207L22.6052 10.8235L29 15.1183V32H11V8ZM17.0361 21.6409C16.7686 21.7445 16.3154 21.8316 15.9064 21.8316C14.6959 21.8316 13.9845 21.0961 13.9848 19.9283C13.9848 18.6302 14.8212 17.9984 15.8973 17.9984C16.3775 17.9984 16.7606 18.102 17.0364 18.215L17.3117 17.1678C17.0719 17.0462 16.5379 16.9081 15.8347 16.9081C14.0207 16.9081 12.5614 18.0155 12.5614 20.0058C12.5614 21.667 13.6288 22.9219 15.702 22.9219C16.431 22.9219 16.9914 22.7923 17.2408 22.6713L17.0361 21.6409ZM19.5975 22.9214C18.9122 22.9214 18.2362 22.7483 17.8978 22.5671L18.1736 21.4763C18.5384 21.658 19.099 21.8396 19.6777 21.8396C20.3002 21.8396 20.6295 21.589 20.6295 21.2078C20.6295 20.8445 20.3452 20.6369 19.6242 20.3863C18.6277 20.0483 17.978 19.5119 17.978 18.6639C17.978 17.6687 18.832 16.9071 20.2471 16.9071C20.9226 16.9071 21.4211 17.0452 21.7766 17.2012L21.4741 18.2661C21.2343 18.1531 20.8067 17.9888 20.2197 17.9888C19.6327 17.9888 19.3476 18.2485 19.3476 18.5512C19.3476 18.9233 19.686 19.0881 20.4598 19.3737C21.5189 19.7544 22.0169 20.2906 22.0169 21.1124C22.0169 22.0913 21.2434 22.9214 19.5975 22.9214ZM24.6404 19.4691L23.9113 17.0035H22.4256L24.3475 22.8356H25.9305L27.9502 17.0035H26.5092L25.7443 19.4953C25.5399 20.1611 25.3523 20.8541 25.2015 21.5546H25.1749C25.0323 20.8281 24.8455 20.1611 24.6404 19.4691Z" fill="#01A75A"/>
<path d="M24.8326 8L24 10.0412L29 13L24.8326 8Z" fill="#01A75A"/>
</svg>
