<svg width="24" height="24" viewBox="0 0 24 24" fill="none" xmlns="http://www.w3.org/2000/svg">
<path d="M5.33301 14.6667C5.50982 14.6667 5.67939 14.737 5.80441 14.862C5.92944 14.987 5.99967 15.1566 5.99967 15.3334V18.0001H17.9997V15.3334C17.9997 15.1566 18.0699 14.987 18.1949 14.862C18.32 14.737 18.4895 14.6667 18.6663 14.6667C18.8432 14.6667 19.0127 14.737 19.1377 14.862C19.2628 14.987 19.333 15.1566 19.333 15.3334V18.6667C19.333 18.8436 19.2628 19.0131 19.1377 19.1382C19.0127 19.2632 18.8432 19.3334 18.6663 19.3334H5.33301C5.1562 19.3334 4.98663 19.2632 4.8616 19.1382C4.73658 19.0131 4.66634 18.8436 4.66634 18.6667V15.3334C4.66634 15.1566 4.73658 14.987 4.8616 14.862C4.98663 14.737 5.1562 14.6667 5.33301 14.6667Z" fill="#07214C"/>
<path d="M12.4711 15.8047C12.346 15.9297 12.1765 15.9999 11.9997 15.9999C11.823 15.9999 11.6534 15.9297 11.5284 15.8047L7.52839 11.8047C7.40696 11.679 7.33976 11.5106 7.34128 11.3358C7.3428 11.161 7.41291 10.9938 7.53652 10.8702C7.66012 10.7466 7.82733 10.6765 8.00213 10.675C8.17693 10.6734 8.34533 10.7406 8.47106 10.8621L11.3331 13.7241V5.33341C11.3331 5.1566 11.4033 4.98703 11.5283 4.86201C11.6533 4.73699 11.8229 4.66675 11.9997 4.66675C12.1765 4.66675 12.3461 4.73699 12.4711 4.86201C12.5962 4.98703 12.6664 5.1566 12.6664 5.33341V13.7241L15.5284 10.8621C15.6541 10.7406 15.8225 10.6734 15.9973 10.675C16.1721 10.6765 16.3393 10.7466 16.4629 10.8702C16.5865 10.9938 16.6567 11.161 16.6582 11.3358C16.6597 11.5106 16.5925 11.679 16.4711 11.8047L12.4711 15.8047Z" fill="#07214C"/>
</svg>
