<svg width="32" height="32" viewBox="0 0 32 32" fill="none" xmlns="http://www.w3.org/2000/svg">
<path d="M13.6397 25.2505V18.8477L7.12855 9.16816C6.86414 8.86326 6.97798 8.02571 7.74919 8H24.2456C24.6937 8 25.2629 8.52898 24.8663 9.16816L18.3551 18.8477V22.8224C18.3551 23.0575 18.2449 23.2779 18.0576 23.4211L14.8406 25.8493C14.657 26.055 13.7352 26.1909 13.6397 25.2505ZM9.15939 9.49877L15.0132 18.2012C15.0977 18.3261 15.1417 18.4693 15.1417 18.6199V23.7481L16.8604 22.4514V18.6199C16.8604 18.4693 16.9045 18.3261 16.989 18.2012L22.8354 9.49877H9.15939Z" fill="#07214C"/>
</svg>
