<svg width="24" height="24" viewBox="0 0 24 24" fill="none" xmlns="http://www.w3.org/2000/svg">
<path d="M12 21C16.962 21 21 16.962 21 12C21 7.03801 16.962 3 12 3C7.03796 3 3 7.03801 3 12C3 16.962 7.03801 21 12 21ZM12 4.19998C16.302 4.19998 19.8 7.69797 19.8 12C19.8 16.302 16.302 19.8 12 19.8C7.69797 19.8 4.19998 16.302 4.19998 12C4.19998 7.69797 7.69802 4.19998 12 4.19998Z" fill="#07214C" fill-opacity="0.8"/>
<path d="M14.6254 14.8681C14.7364 14.9581 14.8684 15.0001 15.0004 15.0001C15.1774 15.0001 15.3514 14.9221 15.4684 14.7751C15.6754 14.5171 15.6333 14.1391 15.3754 13.9321L12.6004 11.7121V7.20009C12.6004 6.87008 12.3304 6.6001 12.0004 6.6001C11.6704 6.6001 11.4004 6.87008 11.4004 7.20009V12.0001C11.4004 12.1831 11.4844 12.3541 11.6254 12.4681L14.6254 14.8681Z" fill="#07214C" fill-opacity="0.8"/>
</svg>
