<svg width="12" height="12" viewBox="0 0 12 12" fill="none" xmlns="http://www.w3.org/2000/svg">
<g clip-path="url(#clip0)">
<path d="M2 5.75C2.55228 5.75 3 5.30228 3 4.75C3 4.19771 2.55228 3.75 2 3.75C1.44772 3.75 1 4.19771 1 4.75C1 5.30228 1.44772 5.75 2 5.75Z" fill="#07214C" fill-opacity="0.8"/>
<path d="M3.335 6.45C2.83 6.83 2.5 7.44 2.5 8.125V8.25H0.375C0.17 8.25 0 8.08 0 7.875V7.625C0 6.865 0.615 6.25 1.375 6.25H2.625C2.885 6.25 3.13 6.325 3.335 6.45Z" fill="#07214C" fill-opacity="0.8"/>
<path d="M10 5.75C10.5523 5.75 11 5.30228 11 4.75C11 4.19771 10.5523 3.75 10 3.75C9.44771 3.75 9 4.19771 9 4.75C9 5.30228 9.44771 5.75 10 5.75Z" fill="#07214C" fill-opacity="0.8"/>
<path d="M12 7.625V7.875C12 8.08 11.83 8.25 11.625 8.25H9.50004V8.125C9.50004 7.44 9.17004 6.83 8.66504 6.45C8.87004 6.325 9.11504 6.25 9.37504 6.25H10.625C11.385 6.25 12 6.865 12 7.625Z" fill="#07214C" fill-opacity="0.8"/>
<path d="M6 6C6.82843 6 7.5 5.32843 7.5 4.5C7.5 3.67157 6.82843 3 6 3C5.17157 3 4.5 3.67157 4.5 4.5C4.5 5.32843 5.17157 6 6 6Z" fill="#07214C" fill-opacity="0.8"/>
<path d="M7.375 6.75H4.625C3.8665 6.75 3.25 7.3665 3.25 8.125V8.875C3.25 9.082 3.418 9.25 3.625 9.25H8.375C8.582 9.25 8.75 9.082 8.75 8.875V8.125C8.75 7.3665 8.1335 6.75 7.375 6.75Z" fill="#07214C" fill-opacity="0.8"/>
</g>
<defs>
<clipPath id="clip0">
<rect width="12" height="12" fill="white"/>
</clipPath>
</defs>
</svg>
