<svg width="24" height="24" viewBox="0 0 24 24" fill="none" xmlns="http://www.w3.org/2000/svg">
<rect opacity="0.01" width="24" height="24" rx="3" fill="#009DFF"/>
<path fill-rule="evenodd" clip-rule="evenodd" d="M18.3801 8.17183C18.5503 8.34193 18.6963 8.5729 18.8178 8.86443C18.9393 9.15619 19 9.42353 19 9.66667V18.125C19 18.3682 18.915 18.5748 18.745 18.7449C18.5749 18.9149 18.3683 19 18.1251 19H5.87494C5.63196 19 5.4253 18.9149 5.25514 18.7449C5.08498 18.5748 5 18.3682 5 18.125V5.87496C5 5.63185 5.08498 5.42523 5.25514 5.25517C5.4253 5.08502 5.63196 5 5.87494 5H14.3334C14.5764 5 14.8438 5.06075 15.1354 5.18223C15.427 5.30383 15.658 5.44972 15.828 5.61972L18.3801 8.17183ZM10.92 6.25317C10.8623 6.31101 10.8334 6.37924 10.8334 6.45822V9.37491C10.8334 9.45402 10.8623 9.52224 10.92 9.58009C10.9777 9.63774 11.0461 9.66654 11.1251 9.66654H12.8752C12.954 9.66654 13.0223 9.63765 13.0801 9.58009C13.1377 9.52234 13.1668 9.45402 13.1668 9.37491V6.45822C13.1668 6.37924 13.1379 6.31101 13.0801 6.25317C13.0223 6.19551 12.954 6.16671 12.8752 6.16671H11.1251C11.0461 6.16671 10.9777 6.19557 10.92 6.25317ZM15.5002 17.8334H8.49994V14.3333H15.5002V17.8334ZM16.6668 17.8334H17.8337V9.66667C17.8337 9.58162 17.8035 9.46462 17.7425 9.31569C17.6818 9.16689 17.621 9.06195 17.5603 9.0012L14.9989 6.43989C14.9381 6.37914 14.8349 6.31839 14.6889 6.25767C14.5429 6.19692 14.4245 6.16659 14.3334 6.16659V9.9583C14.3334 10.2014 14.2482 10.408 14.0782 10.5781C13.9083 10.7481 13.7015 10.8333 13.4585 10.8333H8.20827C7.96519 10.8333 7.75854 10.7481 7.58838 10.5781C7.41822 10.4079 7.33324 10.2014 7.33324 9.9583V6.16659H6.16657V17.8334H7.33327V14.0416C7.33327 13.7984 7.41835 13.5918 7.58841 13.4217C7.75857 13.2516 7.96522 13.1665 8.2083 13.1665H15.7918C16.0348 13.1665 16.2414 13.2516 16.4115 13.4217C16.5816 13.5919 16.6666 13.7984 16.6666 14.0416V17.8334H16.6668Z" fill="#6F7782"/>
<path d="M18.8178 8.86443L19.0486 8.76832L19.0485 8.76826L18.8178 8.86443ZM18.3801 8.17183L18.2033 8.34861L18.2034 8.34868L18.3801 8.17183ZM18.745 18.7449L18.9217 18.9217L18.9218 18.9216L18.745 18.7449ZM5.25514 18.7449L5.0784 18.9217L5.07845 18.9218L5.25514 18.7449ZM5.25514 5.25517L5.43187 5.432L5.43192 5.43195L5.25514 5.25517ZM15.1354 5.18223L15.2316 4.95148L15.2315 4.95146L15.1354 5.18223ZM15.828 5.61972L16.0048 5.44294L16.0048 5.44294L15.828 5.61972ZM10.92 6.25317L10.7434 6.07624L10.7431 6.07653L10.92 6.25317ZM10.92 9.58009L10.7431 9.75672L10.7433 9.75686L10.92 9.58009ZM13.0801 9.58009L13.2566 9.75711L13.2569 9.75677L13.0801 9.58009ZM13.0801 6.25317L13.2568 6.07634L13.2567 6.07629L13.0801 6.25317ZM8.49994 17.8334H8.24994V18.0834H8.49994V17.8334ZM15.5002 17.8334V18.0834H15.7502V17.8334H15.5002ZM8.49994 14.3333V14.0833H8.24994V14.3333H8.49994ZM15.5002 14.3333H15.7502V14.0833H15.5002V14.3333ZM17.8337 17.8334V18.0834H18.0837V17.8334H17.8337ZM17.7425 9.31569L17.511 9.41014L17.5111 9.41037L17.7425 9.31569ZM17.5603 9.0012L17.7371 8.82447L17.7371 8.82442L17.5603 9.0012ZM14.9989 6.43989L14.8221 6.61667L14.8221 6.61667L14.9989 6.43989ZM14.6889 6.25767L14.5929 6.48848L14.5929 6.48849L14.6889 6.25767ZM14.3334 6.16659V5.91659H14.0834V6.16659H14.3334ZM14.0782 10.5781L13.9014 10.4013L13.9013 10.4014L14.0782 10.5781ZM7.58838 10.5781L7.41161 10.7549L7.41166 10.7549L7.58838 10.5781ZM7.33324 6.16659H7.58324V5.91659H7.33324V6.16659ZM6.16657 6.16659V5.91659H5.91657V6.16659H6.16657ZM6.16657 17.8334H5.91657V18.0834H6.16657V17.8334ZM7.33327 17.8334V18.0834H7.58327V17.8334H7.33327ZM7.58841 13.4217L7.41167 13.2449L7.41162 13.245L7.58841 13.4217ZM16.4115 13.4217L16.5883 13.245L16.5883 13.245L16.4115 13.4217ZM16.6666 17.8334H16.4166V18.0834H16.6666V17.8334ZM19.0485 8.76826C18.9182 8.45554 18.7562 8.19418 18.5568 7.99499L18.2034 8.34868C18.3445 8.48967 18.4743 8.69026 18.587 8.96061L19.0485 8.76826ZM19.25 9.66667C19.25 9.38226 19.1791 9.08183 19.0486 8.76832L18.587 8.96055C18.6994 9.23056 18.75 9.4648 18.75 9.66667H19.25ZM19.25 18.125V9.66667H18.75V18.125H19.25ZM18.9218 18.9216C19.1393 18.7041 19.25 18.4336 19.25 18.125H18.75C18.75 18.3027 18.6907 18.4455 18.5682 18.5682L18.9218 18.9216ZM18.1251 19.25C18.4339 19.25 18.7042 19.1391 18.9217 18.9217L18.5683 18.5681C18.4456 18.6907 18.3028 18.75 18.1251 18.75V19.25ZM5.87494 19.25H18.1251V18.75H5.87494V19.25ZM5.07845 18.9218C5.29598 19.1391 5.56639 19.25 5.87494 19.25V18.75C5.69752 18.75 5.55463 18.6907 5.43184 18.568L5.07845 18.9218ZM4.75 18.125C4.75 18.4336 4.86073 18.7041 5.0784 18.9217L5.43189 18.5681C5.30924 18.4455 5.25 18.3027 5.25 18.125H4.75ZM4.75 5.87496V18.125H5.25V5.87496H4.75ZM5.07842 5.07835C4.86073 5.2959 4.75 5.56639 4.75 5.87496H5.25C5.25 5.69731 5.30923 5.55457 5.43187 5.432L5.07842 5.07835ZM5.87494 4.75C5.56645 4.75 5.29597 4.86079 5.07837 5.0784L5.43192 5.43195C5.55464 5.30924 5.69746 5.25 5.87494 5.25V4.75ZM14.3334 4.75H5.87494V5.25H14.3334V4.75ZM15.2315 4.95146C14.9182 4.82091 14.6177 4.75 14.3334 4.75V5.25C14.5351 5.25 14.7695 5.30059 15.0392 5.41299L15.2315 4.95146ZM16.0048 5.44294C15.8057 5.24386 15.5444 5.08189 15.2316 4.95148L15.0392 5.41297C15.3097 5.52576 15.5103 5.65559 15.6512 5.7965L16.0048 5.44294ZM18.5569 7.99505L16.0048 5.44294L15.6512 5.7965L18.2033 8.34861L18.5569 7.99505ZM11.0834 6.45822C11.0834 6.45 11.0847 6.44654 11.0853 6.44512C11.086 6.44351 11.0884 6.43835 11.097 6.4298L10.7431 6.07653C10.6406 6.17927 10.5834 6.31025 10.5834 6.45822H11.0834ZM11.0834 9.37491V6.45822H10.5834V9.37491H11.0834ZM11.097 9.40345C11.0884 9.39491 11.086 9.38976 11.0853 9.38816C11.0847 9.38674 11.0834 9.38323 11.0834 9.37491H10.5834C10.5834 9.52294 10.6405 9.65394 10.7431 9.75672L11.097 9.40345ZM11.1251 9.41654C11.1167 9.41654 11.1131 9.41518 11.1117 9.41456C11.11 9.41387 11.105 9.41153 11.0968 9.40331L10.7433 9.75686C10.8462 9.85982 10.9776 9.91654 11.1251 9.91654V9.41654ZM12.8752 9.41654H11.1251V9.91654H12.8752V9.41654ZM12.9035 9.40307C12.8951 9.41143 12.89 9.41386 12.8883 9.41458C12.8868 9.41523 12.8833 9.41654 12.8752 9.41654V9.91654C13.0228 9.91654 13.1539 9.85948 13.2566 9.75711L12.9035 9.40307ZM12.9168 9.37491C12.9168 9.38307 12.9155 9.38656 12.9148 9.38804C12.9141 9.38971 12.9117 9.3949 12.9032 9.40341L13.2569 9.75677C13.3594 9.65422 13.4168 9.52316 13.4168 9.37491H12.9168ZM12.9168 6.45822V9.37491H13.4168V6.45822H12.9168ZM12.9033 6.42999C12.9118 6.43851 12.9142 6.44363 12.9149 6.44517C12.9155 6.44653 12.9168 6.44997 12.9168 6.45822H13.4168C13.4168 6.31028 13.3597 6.17918 13.2568 6.07634L12.9033 6.42999ZM12.8752 6.41671C12.8834 6.41671 12.8869 6.41804 12.8884 6.41866C12.89 6.41935 12.8951 6.42173 12.9034 6.43004L13.2567 6.07629C13.1539 5.97355 13.0227 5.91671 12.8752 5.91671V6.41671ZM11.1251 6.41671H12.8752V5.91671H11.1251V6.41671ZM11.0967 6.43009C11.105 6.4218 11.1101 6.4194 11.1117 6.4187C11.1132 6.41806 11.1168 6.41671 11.1251 6.41671V5.91671C10.9774 5.91671 10.8462 5.9736 10.7434 6.07624L11.0967 6.43009ZM8.49994 18.0834H15.5002V17.5834H8.49994V18.0834ZM8.24994 14.3333V17.8334H8.74994V14.3333H8.24994ZM15.5002 14.0833H8.49994V14.5833H15.5002V14.0833ZM15.7502 17.8334V14.3333H15.2502V17.8334H15.7502ZM17.8337 17.5834H16.6668V18.0834H17.8337V17.5834ZM17.5837 9.66667V17.8334H18.0837V9.66667H17.5837ZM17.5111 9.41037C17.5686 9.55088 17.5837 9.6313 17.5837 9.66667H18.0837C18.0837 9.53194 18.0383 9.37836 17.9739 9.221L17.5111 9.41037ZM17.3835 9.17793C17.4082 9.2027 17.4538 9.26997 17.511 9.41014L17.974 9.22123C17.9097 9.06381 17.8338 8.92121 17.7371 8.82447L17.3835 9.17793ZM14.8221 6.61667L17.3835 9.17798L17.7371 8.82442L15.1756 6.26311L14.8221 6.61667ZM14.5929 6.48849C14.7296 6.54537 14.7964 6.59097 14.8221 6.61667L15.1756 6.26312C15.0798 6.16731 14.9401 6.09141 14.7849 6.02684L14.5929 6.48849ZM14.3334 6.41659C14.3758 6.41659 14.4582 6.43246 14.5929 6.48848L14.785 6.02685C14.6276 5.96137 14.4733 5.91659 14.3334 5.91659V6.41659ZM14.5834 9.9583V6.16659H14.0834V9.9583H14.5834ZM14.255 10.7548C14.4723 10.5374 14.5834 10.267 14.5834 9.9583H14.0834C14.0834 10.1358 14.024 10.2786 13.9014 10.4013L14.255 10.7548ZM13.4585 11.0833C13.767 11.0833 14.0377 10.9724 14.2551 10.7548L13.9013 10.4014C13.7789 10.5239 13.636 10.5833 13.4585 10.5833V11.0833ZM8.20827 11.0833H13.4585V10.5833H8.20827V11.0833ZM7.41166 10.7549C7.62921 10.9723 7.89964 11.0833 8.20827 11.0833V10.5833C8.03075 10.5833 7.88788 10.524 7.76511 10.4013L7.41166 10.7549ZM7.08324 9.9583C7.08324 10.2669 7.194 10.5373 7.41161 10.7549L7.76516 10.4013C7.64245 10.2786 7.58324 10.1359 7.58324 9.9583H7.08324ZM7.08324 6.16659V9.9583H7.58324V6.16659H7.08324ZM6.16657 6.41659H7.33324V5.91659H6.16657V6.41659ZM6.41657 17.8334V6.16659H5.91657V17.8334H6.41657ZM7.33327 17.5834H6.16657V18.0834H7.33327V17.5834ZM7.08327 14.0416V17.8334H7.58327V14.0416H7.08327ZM7.41162 13.245C7.19414 13.4625 7.08327 13.7329 7.08327 14.0416H7.58327C7.58327 13.864 7.64256 13.7212 7.76521 13.5985L7.41162 13.245ZM8.2083 12.9165C7.89967 12.9165 7.62923 13.0274 7.41167 13.2449L7.76516 13.5985C7.88792 13.4758 8.03078 13.4165 8.2083 13.4165V12.9165ZM15.7918 12.9165H8.2083V13.4165H15.7918V12.9165ZM16.5883 13.245C16.3708 13.0275 16.1004 12.9165 15.7918 12.9165V13.4165C15.9692 13.4165 16.112 13.4758 16.2347 13.5985L16.5883 13.245ZM16.9166 14.0416C16.9166 13.7329 16.8058 13.4626 16.5883 13.245L16.2346 13.5984C16.3574 13.7213 16.4166 13.864 16.4166 14.0416H16.9166ZM16.9166 17.8334V14.0416H16.4166V17.8334H16.9166ZM16.6668 17.5834H16.6666V18.0834H16.6668V17.5834Z" fill="#6F7782"/>
</svg>
