<svg width="24" height="24" viewBox="0 0 24 24" fill="none" xmlns="http://www.w3.org/2000/svg">
<path d="M17.5383 11.2504C17.9738 10.712 18.2776 10.0793 18.4256 9.40282C18.5736 8.72632 18.5617 8.02462 18.3909 7.35351C18.2201 6.68241 17.8951 6.0604 17.4417 5.53696C16.9883 5.01353 16.419 4.60309 15.7791 4.33829C15.1393 4.07349 14.4464 3.96163 13.7557 4.01161C13.065 4.06159 12.3955 4.27202 11.8004 4.62618C11.2053 4.98034 10.7011 5.46845 10.3278 6.05171C9.95445 6.63497 9.72236 7.29729 9.64995 7.98599C8.52639 8.01473 4.97965 8.13808 5.18501 9.64039C4.40773 9.98216 4.0147 10.3592 4 10.9141V13.0234C4.00956 13.2144 4.06631 13.4 4.16518 13.5636C4.26406 13.7272 4.40197 13.8637 4.56656 13.961C4.40197 14.0582 4.26406 14.1947 4.16519 14.3583C4.06631 14.5219 4.00956 14.7075 4 14.8984V17.0078C4 18.3765 7.03739 19 9.85939 19C12.6814 19 15.7188 18.3765 15.7188 17.0078V14.8984C15.7092 14.7075 15.6525 14.5219 15.5536 14.3583C15.4547 14.1947 15.3168 14.0582 15.1522 13.9609C15.3168 13.8637 15.4547 13.7272 15.5536 13.5636C15.6525 13.4 15.7092 13.2144 15.7188 13.0234V12.5891C16.1362 12.4235 16.5262 12.1956 16.8755 11.9133L18.1999 13.2377C18.2878 13.3256 18.407 13.375 18.5313 13.375C18.6556 13.375 18.7748 13.3256 18.8627 13.2377C18.9506 13.1498 19 13.0306 19 12.9063C19 12.7819 18.9506 12.6627 18.8627 12.5748L17.5383 11.2504ZM14.0782 4.9375C14.7705 4.93687 15.4476 5.14088 16.0244 5.52388C16.6012 5.90689 17.0519 6.45181 17.3199 7.09018C17.588 7.72855 17.6613 8.4319 17.5309 9.11186C17.4004 9.79181 17.0719 10.418 16.5866 10.9119C16.5776 10.9196 16.5677 10.9257 16.5592 10.9342C16.5508 10.9427 16.5446 10.9525 16.5369 10.9615C16.1252 11.3651 15.6206 11.6611 15.0674 11.8236C14.5143 11.9861 13.9297 12.0101 13.3651 11.8933C12.8006 11.7766 12.2734 11.5227 11.8301 11.1541C11.3868 10.7856 11.041 10.3136 10.8231 9.77986C10.6053 9.24611 10.5221 8.66695 10.5808 8.09345C10.6396 7.51995 10.8386 6.96972 11.1602 6.49127C11.4818 6.01281 11.9162 5.62083 12.4251 5.34986C12.9339 5.0789 13.5017 4.93729 14.0782 4.9375ZM5.85622 10.3872C6.65656 10.8369 8.79652 11.1017 10.4454 11.0198C10.6816 11.3541 10.9624 11.6546 11.2801 11.9127C10.8203 11.9494 10.343 11.9687 9.85939 11.9687C6.6262 11.9687 5.00686 11.2011 4.93705 10.9186C4.93769 10.9161 5.03352 10.6673 5.85622 10.3872ZM9.65053 8.92409C9.69372 9.32511 9.7917 9.71831 9.94174 10.0927C8.11741 10.1129 6.63155 9.79265 6.19372 9.50472C6.56173 9.27595 7.74968 8.94704 9.65054 8.92409H9.65053ZM14.0955 14.4575C14.2862 14.4992 14.8304 14.8604 14.7802 14.8964C14.7017 15.1901 13.0833 15.9531 9.85939 15.9531C6.6262 15.9531 5.00686 15.1855 4.93705 14.9031C4.93758 14.9011 5.01205 14.702 5.62322 14.4575C6.69647 14.812 8.2224 15.0156 9.85939 15.0156C11.4966 15.0156 13.0227 14.8119 14.0955 14.4575ZM9.85939 18.0625C6.6262 18.0625 5.00686 17.2948 4.9375 17.0078L4.93729 16.0467C6.05421 16.6208 8.00326 16.8906 9.85939 16.8906C11.7155 16.8906 13.6646 16.6208 14.7815 16.0467L14.7817 17.003C14.7119 17.2948 13.0926 18.0625 9.85939 18.0625ZM14.7818 13.0187C13.8302 13.9126 11.6992 14.0255 9.85939 14.0781C8.26385 14.0781 6.73503 13.8695 5.76926 13.52C5.02665 13.2522 4.93853 13.0234 4.9375 13.0234L4.93729 12.0623C6.05421 12.6364 8.00326 12.9062 9.85939 12.9062C10.8082 12.9094 11.7557 12.8346 12.6923 12.6826C13.3651 12.9059 14.0823 12.9617 14.7816 12.8451L14.7818 13.0187Z" fill="#07214C" fill-opacity="0.5"/>
<path d="M9.85915 12.9812C10.806 12.9844 11.7514 12.9102 12.6862 12.7595C13.3375 12.9727 14.0292 13.0319 14.7067 12.9328L14.7067 12.9859C14.246 13.4034 13.5051 13.6464 12.6414 13.7899C11.7657 13.9355 10.7781 13.9768 9.85832 14.0031C8.2676 14.003 6.74892 13.7948 5.79479 13.4495L5.79471 13.4494C5.42853 13.3174 5.22862 13.1967 5.12173 13.1124C5.06841 13.0704 5.03849 13.0376 5.02259 13.0172C5.01829 13.0117 5.01498 13.0071 5.0125 13.0034L5.01231 12.183C6.15974 12.7283 8.05872 12.9812 9.85915 12.9812ZM9.85915 12.9812L9.85939 12.9062M9.85915 12.9812C9.85923 12.9812 9.85931 12.9812 9.85939 12.9812V12.9062M9.85939 12.9062C10.8082 12.9094 11.7557 12.8346 12.6923 12.6826C13.3411 12.8979 14.0312 12.9575 14.7067 12.857L9.85939 12.9062ZM4.101 13.6024C4.18595 13.7429 4.29797 13.8648 4.43015 13.961C4.29798 14.0572 4.18596 14.179 4.101 14.3195C3.99571 14.4938 3.93527 14.6914 3.92509 14.8947L3.925 14.8947V14.8984V17.0078C3.925 17.3815 4.13337 17.6968 4.47319 17.9561C4.81237 18.215 5.29007 18.4244 5.85029 18.5891C6.97158 18.9188 8.44414 19.075 9.85939 19.075C11.2747 19.075 12.7472 18.9188 13.8685 18.5891C14.4287 18.4244 14.9064 18.215 15.2456 17.9561C15.5854 17.6968 15.7938 17.3815 15.7938 17.0078V14.8984H15.7939L15.7937 14.8947C15.7835 14.6914 15.7231 14.4937 15.6178 14.3195C15.5328 14.1789 15.4208 14.0571 15.2886 13.9609C15.4208 13.8647 15.5328 13.7429 15.6178 13.6024C15.7231 13.4281 15.7835 13.2305 15.7937 13.0272L15.7938 13.0272V13.0234V12.6398C16.1796 12.4816 16.5417 12.2709 16.8698 12.0137L18.1468 13.2907C18.2488 13.3927 18.3871 13.45 18.5313 13.45C18.6755 13.45 18.8138 13.3927 18.9158 13.2907C19.0177 13.1887 19.075 13.0505 19.075 12.9063C19.075 12.7621 19.0177 12.6238 18.9158 12.5218L17.6387 11.2448C18.059 10.7088 18.3531 10.0847 18.4988 9.41885C18.6493 8.73095 18.6373 8.01743 18.4636 7.33502C18.2899 6.6526 17.9594 6.02012 17.4984 5.48786C17.0373 4.9556 16.4585 4.53825 15.8078 4.26899C15.1572 3.99973 14.4527 3.88598 13.7503 3.9368C13.048 3.98762 12.3672 4.2016 11.7621 4.56173C11.157 4.92186 10.6442 5.4182 10.2646 6.01128C9.89683 6.58588 9.66385 7.23593 9.58272 7.91273C8.99923 7.92847 7.87465 7.97176 6.90289 8.18738C6.39901 8.29919 5.92843 8.45892 5.59521 8.69056C5.27474 8.91334 5.07351 9.2094 5.10456 9.59413C4.35352 9.93312 3.94062 10.3237 3.92503 10.9121L3.925 10.9121V10.9141V13.0234H3.92491L3.92509 13.0272C3.93527 13.2305 3.99571 13.4281 4.101 13.6024ZM14.0781 5.0125L14.0782 5.0125C14.7558 5.01188 15.4184 5.21153 15.9829 5.58636C16.5474 5.96119 16.9885 6.49447 17.2508 7.11922C17.5131 7.74396 17.5849 8.43229 17.4572 9.09772C17.3298 9.76195 17.0092 10.3738 16.5357 10.8567C16.5346 10.8576 16.5332 10.8586 16.5313 10.86C16.5301 10.8609 16.5288 10.8619 16.5272 10.8631C16.5221 10.8671 16.5141 10.8732 16.5061 10.8812C16.4983 10.8891 16.4922 10.897 16.4882 10.9021C16.4849 10.9065 16.4832 10.9088 16.4817 10.9106C16.0793 11.3042 15.5864 11.593 15.0463 11.7517C14.505 11.9107 13.9328 11.9341 13.3803 11.8199C12.8278 11.7056 12.3119 11.4572 11.8781 11.0965C11.4442 10.7358 11.1058 10.2739 10.8926 9.75152C10.6793 9.22916 10.5979 8.66236 10.6555 8.1011C10.713 7.53984 10.9077 7.00135 11.2225 6.53311C11.5372 6.06487 11.9623 5.68124 12.4603 5.41606C12.9583 5.15088 13.5139 5.01229 14.0781 5.0125ZM7.36172 9.21083C7.9236 9.1008 8.66839 9.01472 9.5838 9.00004C9.62666 9.34813 9.71019 9.68996 9.83265 10.0185C8.96772 10.0217 8.18424 9.94859 7.56062 9.84037C7.23582 9.78401 6.95518 9.71827 6.72946 9.64919C6.57425 9.60169 6.44712 9.55323 6.35009 9.5062C6.55231 9.41138 6.89055 9.30309 7.36172 9.21083ZM14.6729 14.8758C14.6829 14.8843 14.6911 14.8916 14.6975 14.8978C14.6866 14.9145 14.6661 14.9385 14.6301 14.9688C14.5775 15.0132 14.5002 15.0643 14.3965 15.1192C14.1894 15.2288 13.8844 15.3499 13.4792 15.4627C12.6694 15.688 11.4657 15.8781 9.85939 15.8781C8.24849 15.8781 7.04223 15.6869 6.23203 15.4617C5.82669 15.3491 5.52201 15.2284 5.31588 15.1199C5.21265 15.0656 5.136 15.0153 5.08417 14.9718C5.05165 14.9446 5.03252 14.923 5.02177 14.9077C5.0351 14.89 5.05894 14.863 5.09963 14.8285C5.18444 14.7566 5.34148 14.6534 5.6259 14.5373C6.70766 14.8898 8.23068 15.0906 9.85939 15.0906C11.4908 15.0906 13.0162 14.8891 14.0979 14.5357C14.1356 14.5471 14.1902 14.5711 14.2552 14.6051C14.3298 14.6441 14.412 14.693 14.4872 14.7419C14.5628 14.7911 14.6292 14.839 14.6729 14.8758ZM5.13407 10.8165C5.24949 10.7277 5.46278 10.6032 5.84924 10.469C6.26836 10.6935 7.00051 10.8676 7.8227 10.9772C8.65404 11.0881 9.58845 11.1344 10.4081 11.0967C10.6072 11.3731 10.8366 11.6263 11.0918 11.8515C10.6907 11.8792 10.2774 11.8937 9.85939 11.8937C8.24849 11.8937 7.04223 11.7025 6.23203 11.4773C5.8267 11.3647 5.52201 11.244 5.31588 11.1355C5.21266 11.0812 5.136 11.0308 5.08417 10.9874C5.05173 10.9602 5.03262 10.9386 5.02185 10.9233C5.02265 10.9223 5.02347 10.9212 5.02434 10.9201C5.0419 10.8976 5.07496 10.8619 5.13407 10.8165ZM9.85939 17.9875C8.24848 17.9875 7.04224 17.7962 6.23214 17.5705C5.82684 17.4576 5.52225 17.3365 5.31624 17.2274C5.21307 17.1728 5.13651 17.1221 5.08476 17.0783C5.03781 17.0386 5.01873 17.0106 5.0125 16.9962L5.01231 16.1674C6.15979 16.7127 8.0589 16.9656 9.85939 16.9656C11.6599 16.9656 13.5591 16.7127 14.7065 16.1674L14.7067 16.9916C14.7005 17.0066 14.6812 17.035 14.6341 17.0753C14.5823 17.1195 14.5058 17.1705 14.4026 17.2255C14.1966 17.3352 13.892 17.4567 13.4867 17.57C12.6765 17.7962 11.4703 17.9875 9.85939 17.9875Z" stroke="#07214C" stroke-opacity="0.5" stroke-width="0.15"/>
</svg>
