<svg width="24" height="24" viewBox="0 0 24 24" fill="none" xmlns="http://www.w3.org/2000/svg">
<g clip-path="url(#clip0)">
<path d="M10.3454 15.6921C9.28802 15.6922 8.25432 15.3788 7.37507 14.7914C6.49583 14.2041 5.81054 13.3691 5.4059 12.3922C5.00126 11.4153 4.89545 10.3403 5.10185 9.30323C5.30824 8.26617 5.81758 7.31362 6.56542 6.56607C8.64902 4.48221 12.0394 4.48221 14.1232 6.56607C16.2071 8.64994 16.2068 12.04 14.1232 14.1239C13.6275 14.6208 13.0387 15.0151 12.3905 15.2842C11.7422 15.5532 11.0473 15.6918 10.3454 15.6921V15.6921ZM10.3454 6.37057C9.49186 6.37139 8.6612 6.64675 7.97618 7.15598C7.29116 7.66521 6.78812 8.38128 6.54137 9.1984C6.29463 10.0155 6.31727 10.8903 6.60596 11.6936C6.89465 12.4969 7.43407 13.1859 8.14452 13.659C8.36725 13.8074 8.60455 13.9327 8.85273 14.0328C9.57668 14.3263 10.3711 14.3998 11.1366 14.2442C11.9021 14.0886 12.6047 13.7107 13.1566 13.1578C14.7073 11.6072 14.7073 9.08361 13.1566 7.5335C12.7876 7.16384 12.3492 6.87073 11.8666 6.67102C11.384 6.47131 10.8666 6.36892 10.3443 6.36975L10.3454 6.37057Z" fill="#07214C"/>
<path d="M18.3165 18.9999C18.2267 19 18.1378 18.9824 18.0548 18.948C17.9718 18.9137 17.8965 18.8633 17.8331 18.7997L13.1573 14.1239C13.0291 13.9957 12.957 13.8218 12.957 13.6405C12.957 13.4591 13.0291 13.2852 13.1573 13.157C13.2855 13.0288 13.4594 12.9568 13.6407 12.9568C13.822 12.9568 13.9959 13.0288 14.1242 13.157L18.7999 17.8328C18.8956 17.9284 18.9607 18.0502 18.9871 18.1829C19.0135 18.3155 18.9999 18.453 18.9482 18.5779C18.8964 18.7028 18.8088 18.8096 18.6963 18.8847C18.5839 18.9598 18.4517 18.9999 18.3165 18.9999V18.9999Z" fill="#07214C"/>
</g>
<defs>
<clipPath id="clip0">
<rect width="14" height="14" fill="white" transform="translate(5 5)"/>
</clipPath>
</defs>
</svg>
