<svg width="32" height="32" viewBox="0 0 32 32" fill="none" xmlns="http://www.w3.org/2000/svg">
<g clip-path="url(#clip0)">
<path fill-rule="evenodd" clip-rule="evenodd" d="M16.7595 24.7342C16.7595 25.1537 16.4195 25.4937 16 25.4937C15.5805 25.4937 15.2405 25.1537 15.2405 24.7342V21.5757C13.9176 21.237 12.9367 20.0348 12.9367 18.6077C12.9367 17.1807 13.9176 15.9784 15.2405 15.6397V7.2659C15.2405 6.84641 15.5805 6.5064 16 6.5064C16.4195 6.5064 16.7595 6.84641 16.7595 7.2659V15.6397C18.0824 15.9785 19.0633 17.1807 19.0633 18.6077C19.0633 20.0348 18.0824 21.237 16.7595 21.5757V24.7342ZM16.0103 20.152C16.8572 20.1464 17.5443 19.4559 17.5443 18.6077C17.5443 17.7563 16.8516 17.0634 16 17.0634C15.1486 17.0634 14.4557 17.7561 14.4557 18.6077C14.4557 19.4559 15.143 20.1464 15.9896 20.152L16 20.1519L16.0103 20.152ZM8.30375 24.7342V16.3605C6.98093 16.0217 5.99994 14.8195 5.99994 13.3925C5.99994 11.9654 6.9808 10.7632 8.30375 10.4245V7.26576C8.30375 6.84627 8.64351 6.50627 9.06324 6.50627C9.48273 6.50627 9.82273 6.84627 9.82273 7.26576V10.4245C11.1455 10.7633 12.1265 11.9655 12.1265 13.3925C12.1265 14.8195 11.1455 16.0217 9.82273 16.3605V24.7342C9.82273 25.1537 9.48273 25.4937 9.06324 25.4937C8.64375 25.4937 8.30375 25.1537 8.30375 24.7342ZM9.05294 11.848C8.20629 11.8535 7.51892 12.544 7.51892 13.3925C7.51892 14.2439 8.21158 14.9368 9.06322 14.9368C9.91486 14.9368 10.6078 14.2441 10.6078 13.3925C10.6078 12.5443 9.92072 11.8535 9.07353 11.848L9.06324 11.848L9.05294 11.848ZM22.1772 16.3605V24.7342C22.1772 25.1537 22.5172 25.4937 22.9367 25.4937C23.3562 25.4937 23.6962 25.1537 23.6962 24.7342V16.3605C25.0192 16.0218 26 14.8195 26 13.3925C26 11.9655 25.0192 10.7632 23.6962 10.4245V7.26576C23.6962 6.84627 23.3562 6.50627 22.9367 6.50627C22.5172 6.50627 22.1772 6.84627 22.1772 7.26576V10.4245C20.8543 10.7632 19.8734 11.9654 19.8734 13.3925C19.8734 14.8195 20.8543 16.0218 22.1772 16.3605ZM21.3924 13.3925C21.3924 12.544 22.0795 11.8535 22.9264 11.848L22.9367 11.848L22.947 11.848C23.7939 11.8535 24.481 12.5443 24.481 13.3925C24.481 14.2441 23.7884 14.9368 22.9367 14.9368C22.0851 14.9368 21.3924 14.2439 21.3924 13.3925Z" fill="#07214C"/>
</g>
<defs>
<clipPath id="clip0">
<rect width="20" height="20" fill="white" transform="translate(26 26) rotate(-180)"/>
</clipPath>
</defs>
</svg>
