<svg width="12" height="12" viewBox="0 0 12 12" fill="none" xmlns="http://www.w3.org/2000/svg">
<path d="M10.6993 6.4283H10.5423C9.84394 6.4283 9.16235 6.20239 8.60285 5.78902L7.72945 6.66242L7.23202 6.16498L8.05591 5.34108L7.64473 4.99887L6.73612 5.90747L6.23869 5.41004L7.10175 4.54698L6.69054 4.20474L5.74277 5.15251L5.24534 4.65507L6.14759 3.75282L5.34862 3.08785C5.24803 3.00411 5.12053 2.95801 4.98963 2.95801C4.68021 2.95801 4.42849 3.20973 4.42849 3.51915V3.82466C4.42849 4.8319 3.60902 5.65137 2.60177 5.65137C1.89478 5.65137 1.24491 5.23733 0.946148 4.59655L0.860156 4.41214C0.786352 4.25384 0.625828 4.15154 0.451172 4.15154C0.202406 4.15154 0 4.35394 0 4.60278V7.61051H12C11.937 6.94819 11.3778 6.4283 10.6993 6.4283Z" fill="#07214C" fill-opacity="0.8"/>
<path d="M0.135742 8.31396C0.349609 8.74489 0.794125 9.04193 1.30694 9.04193H10.6994C11.2122 9.04193 11.6567 8.74491 11.8706 8.31396H0.135742Z" fill="#07214C" fill-opacity="0.8"/>
</svg>
