<svg width="24" height="24" viewBox="0 0 24 24" fill="none" xmlns="http://www.w3.org/2000/svg">
<path d="M17.1421 21.4127C16.8811 21.4128 16.6241 21.3491 16.3934 21.227L12.1082 18.9748C12.075 18.957 12.0379 18.9477 12.0003 18.9477C11.9626 18.9477 11.9255 18.957 11.8923 18.9748L7.60783 21.227C7.34233 21.3668 7.04302 21.4294 6.74377 21.4078C6.44452 21.3862 6.15728 21.2814 5.91455 21.105C5.67182 20.9287 5.48329 20.6879 5.37029 20.41C5.25729 20.132 5.22433 19.828 5.27515 19.5323L6.09327 14.7618C6.09956 14.7244 6.09658 14.6861 6.08459 14.6501C6.0726 14.6141 6.05198 14.5817 6.02452 14.5555L2.5609 11.1751C2.34585 10.9656 2.19378 10.7 2.12192 10.4085C2.05005 10.117 2.06127 9.8112 2.15431 9.52574C2.24734 9.24028 2.41846 8.98658 2.64828 8.79339C2.8781 8.60019 3.15744 8.47523 3.45465 8.43266L8.24171 7.7376C8.27896 7.73218 8.31433 7.71776 8.34475 7.6956C8.37518 7.67344 8.39975 7.6442 8.41633 7.61041L10.5565 3.26885C10.6891 2.99971 10.8944 2.77306 11.1491 2.61456C11.4038 2.45607 11.6978 2.37207 11.9979 2.37207C12.2979 2.37207 12.5919 2.45607 12.8466 2.61456C13.1014 2.77306 13.3066 2.99971 13.4392 3.26885L15.5808 7.60904C15.5975 7.64272 15.6221 7.67187 15.6525 7.69401C15.6829 7.71615 15.7182 7.73063 15.7554 7.73622L20.5466 8.43197C20.8436 8.47479 21.1228 8.59988 21.3524 8.7931C21.5821 8.98633 21.7531 9.23996 21.8461 9.52532C21.9391 9.81068 21.9504 10.1164 21.8787 10.4078C21.807 10.6992 21.6551 10.9648 21.4403 11.1744L17.9733 14.5528C17.9459 14.579 17.9254 14.6115 17.9134 14.6474C17.9014 14.6833 17.8984 14.7217 17.9045 14.759L18.7226 19.5296C18.762 19.7601 18.7507 19.9964 18.6894 20.2221C18.6281 20.4478 18.5184 20.6574 18.3679 20.8363C18.2174 21.0153 18.0297 21.1593 17.8179 21.2584C17.6061 21.3574 17.3752 21.4091 17.1414 21.4099L17.1421 21.4127ZM12.0003 17.5723C12.261 17.5722 12.5178 17.636 12.7483 17.7579L17.0328 20.0095C17.0707 20.0311 17.1142 20.0411 17.1578 20.038C17.2013 20.035 17.243 20.019 17.2775 19.9923C17.3135 19.9676 17.3415 19.9329 17.358 19.8924C17.3745 19.852 17.3788 19.8076 17.3703 19.7647L16.5515 14.9935C16.5078 14.7367 16.527 14.4731 16.6074 14.2254C16.6879 13.9776 16.8272 13.7531 17.0135 13.571L20.4806 10.192C20.5115 10.1617 20.5334 10.1233 20.5437 10.0812C20.554 10.0391 20.5524 9.99503 20.5389 9.95384C20.5255 9.91266 20.5008 9.87605 20.4676 9.84816C20.4345 9.82026 20.3942 9.80219 20.3513 9.79597L15.5608 9.09953C15.3029 9.06219 15.058 8.96262 14.8472 8.80942C14.6363 8.65622 14.466 8.454 14.3508 8.22022L12.2065 3.87935C12.1873 3.8405 12.1576 3.8078 12.1208 3.78493C12.084 3.76207 12.0415 3.74995 11.9982 3.74995C11.9549 3.74995 11.9124 3.76207 11.8756 3.78493C11.8388 3.8078 11.8091 3.8405 11.7899 3.87935L9.64971 8.21885C9.53448 8.45271 9.36402 8.65498 9.15308 8.80819C8.94214 8.96139 8.69706 9.06092 8.43902 9.09816L3.64921 9.79597C3.60625 9.80205 3.56585 9.82007 3.53263 9.84798C3.49941 9.87589 3.47469 9.91256 3.46129 9.95383C3.44789 9.9951 3.44635 10.0393 3.45685 10.0814C3.46734 10.1235 3.48945 10.1618 3.52065 10.192L6.98702 13.571C7.1733 13.7531 7.31265 13.9776 7.39311 14.2254C7.47358 14.4731 7.49276 14.7367 7.44902 14.9935L6.63021 19.7647C6.62278 19.8076 6.62753 19.8517 6.64393 19.892C6.66033 19.9323 6.6877 19.9672 6.72295 19.9927C6.7582 20.0182 6.79989 20.0333 6.8433 20.0362C6.8867 20.0392 6.93007 20.0299 6.96846 20.0095L11.2523 17.7572C11.4829 17.6358 11.7396 17.5723 12.0003 17.5723Z" fill="#07214C" fill-opacity="0.8"/>
</svg>
